<svg width="32" height="32" viewBox="0 0 32 32" fill="none" xmlns="http://www.w3.org/2000/svg">
  <rect width="32" height="32" rx="7" fill="url(#bg)"/>
  <!-- Speed lines -->
  <line x1="2" y1="11" x2="7" y2="11" stroke="white" stroke-width="1.8" stroke-linecap="round" stroke-opacity="0.35"/>
  <line x1="1" y1="16" x2="8" y2="16" stroke="white" stroke-width="2" stroke-linecap="round" stroke-opacity="0.5"/>
  <line x1="2" y1="21" x2="7" y2="21" stroke="white" stroke-width="1.8" stroke-linecap="round" stroke-opacity="0.35"/>
  <!-- $ vertical bar -->
  <line x1="19" y1="5" x2="19" y2="27" stroke="white" stroke-width="2.2" stroke-linecap="round" stroke-opacity="0.6"/>
  <!-- $ S-curve -->
  <path d="M24 10 C24 6 14 6 14 11 C14 15 24 15 24 21 C24 26 14 26 14 22" stroke="white" stroke-width="2.2" stroke-linecap="round" fill="none" stroke-opacity="0.9"/>
  <!-- AI sparkle -->
  <path d="M28 3 L28.6 5.4 L31 6 L28.6 6.6 L28 9 L27.4 6.6 L25 6 L27.4 5.4 Z" fill="white" fill-opacity="0.85"/>
  <defs>
    <linearGradient id="bg" x1="0" y1="0" x2="32" y2="32">
      <stop offset="0%" stop-color="#6366f1"/>
      <stop offset="100%" stop-color="#a855f7"/>
    </linearGradient>
  </defs>
</svg>
